<svg width="200" height="40" viewBox="0 0 200 40" fill="none" xmlns="http://www.w3.org/2000/svg">
<path fill-rule="evenodd" clip-rule="evenodd" d="M5.625 7.5H13.125C17.9575 7.5 21.875 11.4175 21.875 16.25V23.75H14.375C9.54251 23.75 5.625 19.8325 5.625 15V7.5Z" fill="#0252CA"/>
<path fill-rule="evenodd" clip-rule="evenodd" d="M5.625 7.5H13.125C17.9575 7.5 21.875 11.4175 21.875 16.25V23.75L5.625 7.5Z" fill="#3583F9"/>
<path fill-rule="evenodd" clip-rule="evenodd" d="M35 10.625H28.125C24.6732 10.625 21.875 13.4232 21.875 16.875V23.75H28.75C32.2018 23.75 35 20.9518 35 17.5V10.625Z" fill="#3583F9"/>
<path fill-rule="evenodd" clip-rule="evenodd" d="M35 10.625H28.125C24.6732 10.625 21.875 13.4232 21.875 16.875V23.75L35 10.625Z" fill="#0252CA"/>
<path d="M21.875 23.75H19.375V32.5H21.875V23.75Z" fill="#1265E0"/>
<path fill-rule="evenodd" clip-rule="evenodd" d="M19.375 23.75H21.875L19.375 26.0071V23.75Z" fill="#234983"/>
<path d="M50.832 30.144C49.712 30.144 48.664 29.904 47.688 29.424C46.712 28.944 45.856 28.296 45.12 27.48C44.384 26.648 43.8 25.68 43.368 24.576C42.952 23.472 42.744 22.288 42.744 21.024C42.744 19.76 42.952 18.576 43.368 17.472C43.8 16.352 44.384 15.384 45.12 14.568C45.872 13.736 46.752 13.08 47.76 12.6C48.768 12.12 49.856 11.88 51.024 11.88C51.888 11.88 52.632 11.936 53.256 12.048C53.896 12.16 54.432 12.288 54.864 12.432C55.376 12.592 55.816 12.776 56.184 12.984L55.296 16.704C55.136 15.392 54.696 14.328 53.976 13.512C53.272 12.696 52.224 12.288 50.832 12.288C49.968 12.288 49.152 12.472 48.384 12.84C47.616 13.192 46.944 13.712 46.368 14.4C45.792 15.072 45.336 15.904 45 16.896C44.68 17.888 44.52 19.016 44.52 20.28C44.52 21.704 44.72 22.968 45.12 24.072C45.536 25.176 46.088 26.104 46.776 26.856C47.464 27.608 48.264 28.184 49.176 28.584C50.088 28.968 51.048 29.16 52.056 29.16C52.952 29.16 53.728 29.04 54.384 28.8C55.056 28.56 55.616 28.296 56.064 28.008C56.592 27.688 57.048 27.312 57.432 26.88C57.016 27.488 56.496 28.032 55.872 28.512C55.328 28.928 54.64 29.304 53.808 29.64C52.992 29.976 52 30.144 50.832 30.144ZM57.1931 23.64C57.1931 22.728 57.3451 21.88 57.6491 21.096C57.9531 20.312 58.3691 19.624 58.8971 19.032C59.4251 18.44 60.0411 17.976 60.7451 17.64C61.4491 17.304 62.2011 17.136 63.0011 17.136C63.8011 17.136 64.5531 17.304 65.2571 17.64C65.9771 17.976 66.6011 18.44 67.1291 19.032C67.6571 19.624 68.0731 20.312 68.3771 21.096C68.6811 21.88 68.8331 22.728 68.8331 23.64C68.8331 24.552 68.6811 25.408 68.3771 26.208C68.0731 26.992 67.6571 27.68 67.1291 28.272C66.6011 28.848 65.9771 29.312 65.2571 29.664C64.5531 30 63.8011 30.168 63.0011 30.168C62.2011 30.168 61.4491 30 60.7451 29.664C60.0411 29.312 59.4251 28.848 58.8971 28.272C58.3691 27.68 57.9531 26.992 57.6491 26.208C57.3451 25.408 57.1931 24.552 57.1931 23.64ZM63.0011 17.592C62.4571 17.592 61.9451 17.72 61.4651 17.976C61.0011 18.232 60.5931 18.616 60.2411 19.128C59.8891 19.64 59.6091 20.272 59.4011 21.024C59.1931 21.776 59.0891 22.648 59.0891 23.64C59.0891 24.632 59.1931 25.504 59.4011 26.256C59.6091 27.008 59.8891 27.64 60.2411 28.152C60.5931 28.664 61.0011 29.056 61.4651 29.328C61.9451 29.584 62.4571 29.712 63.0011 29.712C63.5451 29.712 64.0491 29.584 64.5131 29.328C64.9931 29.056 65.4091 28.664 65.7611 28.152C66.1291 27.64 66.4171 27.008 66.6251 26.256C66.8331 25.504 66.9371 24.632 66.9371 23.64C66.9371 22.648 66.8331 21.776 66.6251 21.024C66.4171 20.272 66.1291 19.64 65.7611 19.128C65.4091 18.616 64.9931 18.232 64.5131 17.976C64.0491 17.72 63.5451 17.592 63.0011 17.592ZM68.2294 17.28H73.5814L72.1414 17.952L76.3654 27.384L80.4454 18.312L79.1734 17.28H82.6534L80.9254 18.312L75.5734 30.216L70.1014 18.024L68.2294 17.28ZM87.7963 17.184C88.7083 17.184 89.5083 17.336 90.1963 17.64C90.8843 17.944 91.4603 18.376 91.9243 18.936C92.4043 19.48 92.7563 20.144 92.9803 20.928C93.2203 21.696 93.3403 22.544 93.3403 23.472H83.9563C84.0043 24.496 84.1883 25.36 84.5083 26.064C84.8443 26.768 85.2443 27.336 85.7083 27.768C86.1883 28.2 86.7163 28.512 87.2923 28.704C87.8683 28.896 88.4363 28.992 88.9963 28.992C89.8123 28.992 90.4763 28.88 90.9883 28.656C91.5003 28.432 91.9083 28.184 92.2123 27.912C92.5483 27.592 92.8043 27.232 92.9803 26.832C92.9323 27.12 92.8203 27.456 92.6443 27.84C92.4843 28.208 92.2203 28.56 91.8523 28.896C91.5003 29.232 91.0283 29.52 90.4363 29.76C89.8443 30 89.1003 30.12 88.2043 30.12C87.4203 30.12 86.6603 29.984 85.9243 29.712C85.1883 29.44 84.5323 29.032 83.9563 28.488C83.3963 27.944 82.9403 27.264 82.5883 26.448C82.2523 25.632 82.0843 24.688 82.0843 23.616C82.0843 22.72 82.2363 21.888 82.5403 21.12C82.8443 20.336 83.2523 19.656 83.7643 19.08C84.2763 18.488 84.8763 18.024 85.5643 17.688C86.2683 17.352 87.0123 17.184 87.7963 17.184ZM91.6363 22.968C91.6363 22.216 91.5563 21.52 91.3963 20.88C91.2363 20.224 90.9963 19.656 90.6763 19.176C90.3563 18.696 89.9563 18.32 89.4763 18.048C88.9963 17.76 88.4363 17.616 87.7963 17.616C87.2683 17.616 86.7643 17.752 86.2843 18.024C85.8203 18.28 85.4123 18.64 85.0603 19.104C84.7083 19.568 84.4283 20.128 84.2203 20.784C84.0283 21.44 83.9323 22.16 83.9323 22.944V22.968H91.6363ZM104.506 29.328V20.256C104.506 19.968 104.466 19.696 104.386 19.44C104.322 19.168 104.194 18.928 104.002 18.72C103.826 18.512 103.586 18.344 103.282 18.216C102.994 18.088 102.626 18.024 102.178 18.024C101.618 18.024 101.082 18.088 100.57 18.216C100.074 18.328 99.6339 18.448 99.2499 18.576C98.7859 18.752 98.3539 18.944 97.9539 19.152V29.328L99.9699 30H94.0659L96.0819 29.328V18.24L94.0659 17.904L97.9539 17.16V18.768C98.4979 18.464 99.0579 18.192 99.6339 17.952C100.114 17.76 100.634 17.584 101.194 17.424C101.754 17.248 102.29 17.16 102.802 17.16C104.002 17.16 104.898 17.408 105.49 17.904C106.098 18.384 106.402 19.032 106.402 19.848V29.328L108.394 30H102.514L104.506 29.328ZM116.846 28.728C116.526 29.096 116.094 29.424 115.55 29.712C115.006 29.984 114.318 30.12 113.486 30.12C111.838 30.12 110.614 29.808 109.814 29.184C109.03 28.56 108.638 27.592 108.638 26.28C108.638 25.496 108.782 24.848 109.07 24.336C109.374 23.824 109.766 23.416 110.246 23.112C110.742 22.792 111.286 22.56 111.878 22.416C112.486 22.272 113.094 22.176 113.702 22.128C114.31 22.064 114.886 22.04 115.43 22.056C115.99 22.056 116.462 22.056 116.846 22.056V21.264C116.846 20.976 116.822 20.624 116.774 20.208C116.742 19.792 116.63 19.392 116.438 19.008C116.262 18.608 115.99 18.272 115.622 18C115.254 17.712 114.742 17.568 114.086 17.568C113.126 17.568 112.366 17.872 111.806 18.48C111.246 19.088 110.798 20.072 110.462 21.432L109.742 18.288C110.078 18.08 110.47 17.888 110.918 17.712C111.286 17.568 111.734 17.44 112.262 17.328C112.79 17.2 113.39 17.136 114.062 17.136C115.07 17.136 115.878 17.28 116.486 17.568C117.11 17.84 117.582 18.184 117.902 18.6C118.222 19.016 118.43 19.464 118.526 19.944C118.638 20.424 118.694 20.864 118.694 21.264V29.064L120.638 29.4L116.846 30.12V29.88V29.4V28.728ZM110.462 26.424C110.462 27.08 110.55 27.624 110.726 28.056C110.918 28.472 111.158 28.8 111.446 29.04C111.734 29.28 112.054 29.448 112.406 29.544C112.774 29.64 113.134 29.688 113.486 29.688C114.03 29.688 114.51 29.624 114.926 29.496C115.342 29.352 115.694 29.168 115.982 28.944C116.27 28.72 116.486 28.472 116.63 28.2C116.774 27.912 116.846 27.616 116.846 27.312V22.416C116.158 22.416 115.438 22.432 114.686 22.464C113.934 22.496 113.246 22.64 112.622 22.896C111.998 23.136 111.478 23.528 111.062 24.072C110.662 24.616 110.462 25.4 110.462 26.424ZM130.826 29.328V20.256C130.826 19.968 130.786 19.696 130.706 19.44C130.642 19.168 130.514 18.928 130.322 18.72C130.146 18.512 129.906 18.344 129.602 18.216C129.314 18.088 128.946 18.024 128.498 18.024C127.938 18.024 127.402 18.088 126.89 18.216C126.394 18.328 125.954 18.448 125.57 18.576C125.106 18.752 124.674 18.944 124.274 19.152V29.328L126.29 30H120.386L122.402 29.328V18.24L120.386 17.904L124.274 17.16V18.768C124.818 18.464 125.378 18.192 125.954 17.952C126.434 17.76 126.954 17.584 127.514 17.424C128.074 17.248 128.61 17.16 129.122 17.16C130.322 17.16 131.218 17.408 131.81 17.904C132.418 18.384 132.722 19.032 132.722 19.848V29.328L134.714 30H128.834L130.826 29.328ZM143.533 27.888C143.357 28.56 142.973 29.104 142.381 29.52C141.789 29.936 141.117 30.144 140.365 30.144C139.501 30.144 138.821 30 138.325 29.712C137.829 29.408 137.453 29.032 137.197 28.584C136.941 28.136 136.773 27.648 136.693 27.12C136.629 26.576 136.597 26.056 136.597 25.56V17.712H134.941V17.28C135.565 17.28 136.069 17.144 136.453 16.872C136.853 16.6 137.173 16.28 137.413 15.912C137.653 15.544 137.829 15.168 137.941 14.784C138.053 14.4 138.125 14.088 138.157 13.848H138.445V17.28H142.477V17.712H138.445V25.56C138.445 26.152 138.477 26.672 138.541 27.12C138.605 27.568 138.725 27.944 138.901 28.248C139.093 28.536 139.341 28.752 139.645 28.896C139.965 29.04 140.373 29.112 140.869 29.112C141.477 29.112 141.997 29.008 142.429 28.8C142.861 28.576 143.229 28.272 143.533 27.888Z" fill="#313131"/>
<path d="M146.552 29.352V12.648L144.632 12H150.248L148.352 12.648V29.568H152.888C153.592 29.568 154.216 29.528 154.76 29.448C155.304 29.352 155.792 29.176 156.224 28.92C156.656 28.664 157.032 28.312 157.352 27.864C157.688 27.4 157.976 26.8 158.216 26.064L157.784 30H144.632L146.552 29.352ZM158.467 23.64C158.467 22.728 158.619 21.88 158.923 21.096C159.227 20.312 159.643 19.624 160.171 19.032C160.699 18.44 161.315 17.976 162.019 17.64C162.723 17.304 163.475 17.136 164.275 17.136C165.075 17.136 165.827 17.304 166.531 17.64C167.251 17.976 167.875 18.44 168.403 19.032C168.931 19.624 169.347 20.312 169.651 21.096C169.955 21.88 170.107 22.728 170.107 23.64C170.107 24.552 169.955 25.408 169.651 26.208C169.347 26.992 168.931 27.68 168.403 28.272C167.875 28.848 167.251 29.312 166.531 29.664C165.827 30 165.075 30.168 164.275 30.168C163.475 30.168 162.723 30 162.019 29.664C161.315 29.312 160.699 28.848 160.171 28.272C159.643 27.68 159.227 26.992 158.923 26.208C158.619 25.408 158.467 24.552 158.467 23.64ZM164.275 17.592C163.731 17.592 163.219 17.72 162.739 17.976C162.275 18.232 161.867 18.616 161.515 19.128C161.163 19.64 160.883 20.272 160.675 21.024C160.467 21.776 160.363 22.648 160.363 23.64C160.363 24.632 160.467 25.504 160.675 26.256C160.883 27.008 161.163 27.64 161.515 28.152C161.867 28.664 162.275 29.056 162.739 29.328C163.219 29.584 163.731 29.712 164.275 29.712C164.819 29.712 165.323 29.584 165.787 29.328C166.267 29.056 166.683 28.664 167.035 28.152C167.403 27.64 167.691 27.008 167.899 26.256C168.107 25.504 168.211 24.632 168.211 23.64C168.211 22.648 168.107 21.776 167.899 21.024C167.691 20.272 167.403 19.64 167.035 19.128C166.683 18.616 166.267 18.232 165.787 17.976C165.323 17.72 164.819 17.592 164.275 17.592ZM169.503 17.28H174.855L173.415 17.952L177.639 27.384L181.719 18.312L180.447 17.28H183.927L182.199 18.312L176.847 30.216L171.375 18.024L169.503 17.28ZM189.07 17.184C189.982 17.184 190.782 17.336 191.47 17.64C192.158 17.944 192.734 18.376 193.198 18.936C193.678 19.48 194.03 20.144 194.254 20.928C194.494 21.696 194.614 22.544 194.614 23.472H185.23C185.278 24.496 185.462 25.36 185.782 26.064C186.118 26.768 186.518 27.336 186.982 27.768C187.462 28.2 187.99 28.512 188.566 28.704C189.142 28.896 189.71 28.992 190.27 28.992C191.086 28.992 191.75 28.88 192.262 28.656C192.774 28.432 193.182 28.184 193.486 27.912C193.822 27.592 194.078 27.232 194.254 26.832C194.206 27.12 194.094 27.456 193.918 27.84C193.758 28.208 193.494 28.56 193.126 28.896C192.774 29.232 192.302 29.52 191.71 29.76C191.118 30 190.374 30.12 189.478 30.12C188.694 30.12 187.934 29.984 187.198 29.712C186.462 29.44 185.806 29.032 185.23 28.488C184.67 27.944 184.214 27.264 183.862 26.448C183.526 25.632 183.358 24.688 183.358 23.616C183.358 22.72 183.51 21.888 183.814 21.12C184.118 20.336 184.526 19.656 185.038 19.08C185.55 18.488 186.15 18.024 186.838 17.688C187.542 17.352 188.286 17.184 189.07 17.184ZM192.91 22.968C192.91 22.216 192.83 21.52 192.67 20.88C192.51 20.224 192.27 19.656 191.95 19.176C191.63 18.696 191.23 18.32 190.75 18.048C190.27 17.76 189.71 17.616 189.07 17.616C188.542 17.616 188.038 17.752 187.558 18.024C187.094 18.28 186.686 18.64 186.334 19.104C185.982 19.568 185.702 20.128 185.494 20.784C185.302 21.44 185.206 22.16 185.206 22.944V22.968H192.91Z" fill="#0252CA"/>
</svg>
