<?xml version="1.0" encoding="UTF-8"?>
<svg width="64px" height="64px" viewBox="0 0 64 64" version="1.1" xmlns="http://www.w3.org/2000/svg" xmlns:xlink="http://www.w3.org/1999/xlink">
    <!-- Generator: Sketch 57.1 (83088) - https://sketch.com -->
    <title>sprout</title>
    <desc>Created with Sketch.</desc>
    <g id="sprout" stroke="none" stroke-width="1" fill="none" fill-rule="evenodd">
        <g id="sprout-1" transform="translate(9.000000, 12.000000)">
            <g id="leaves">
                <g id="left">
                    <path d="M0,0 L12,0 C19.7319865,-1.42034288e-15 26,6.2680135 26,14 L26,26 L26,26 L14,26 C6.2680135,26 9.46895252e-16,19.7319865 0,12 L0,0 L0,0 Z" id="Rectangle" fill="#0252CA"></path>
                    <path d="M0,0 L12,0 C19.7319865,-1.42034288e-15 26,6.2680135 26,14 L26,26 L26,26 L0,0 Z" id="Rectangle" fill="#3583F9"></path>
                </g>
                <g id="right" transform="translate(36.500000, 15.500000) scale(-1, 1) translate(-36.500000, -15.500000) translate(26.000000, 5.000000)">
                    <path d="M0,0 L11,0 C16.5228475,-1.01453063e-15 21,4.4771525 21,10 L21,21 L21,21 L10,21 C4.4771525,21 6.76353751e-16,16.5228475 0,11 L0,0 L0,0 Z" id="Rectangle" fill="#3583F9"></path>
                    <path d="M0,0 L11,0 C16.5228475,-1.01453063e-15 21,4.4771525 21,10 L21,21 L21,21 L0,0 Z" id="Rectangle" fill="#0252CA"></path>
                </g>
            </g>
            <g id="stem" transform="translate(22.000000, 26.000000)">
                <rect id="Rectangle" fill="#1265E0" x="0" y="0" width="4" height="14"></rect>
                <polygon id="Rectangle" fill="#234983" points="0 0 4 0 0 3.61130501"></polygon>
            </g>
        </g>
    </g>
</svg>