<svg width="51" height="50" viewBox="0 0 51 50" fill="none" xmlns="http://www.w3.org/2000/svg">
<g clip-path="url(#clip0_30_951)">
<rect x="0.5" width="50" height="49" rx="24.5" fill="#0252CA"/>
<path d="M18.82 33V32.208C19.428 32.176 19.844 32.04 20.068 31.8C20.292 31.544 20.412 31.2 20.428 30.768C20.46 30.32 20.476 29.816 20.476 29.256V18.888C20.476 18.568 20.484 18.264 20.5 17.976C20.516 17.672 20.532 17.4 20.548 17.16C20.26 17.176 19.972 17.192 19.684 17.208C19.396 17.224 19.108 17.24 18.82 17.256V16.2C19.716 16.184 20.62 16.168 21.532 16.152C22.46 16.136 23.388 16.144 24.316 16.176C25.868 16.192 27.116 16.376 28.06 16.728C29.02 17.064 29.724 17.552 30.172 18.192C30.62 18.816 30.844 19.576 30.844 20.472C30.86 21.096 30.74 21.736 30.484 22.392C30.244 23.032 29.796 23.608 29.14 24.12C28.5 24.632 27.572 25.016 26.356 25.272C26.676 25.496 26.956 25.784 27.196 26.136C27.436 26.488 27.708 26.896 28.012 27.36L29.644 29.928C29.916 30.36 30.18 30.752 30.436 31.104C30.692 31.44 30.988 31.712 31.324 31.92C31.66 32.112 32.076 32.208 32.572 32.208V33H29.548C29.084 32.584 28.692 32.168 28.372 31.752C28.068 31.336 27.748 30.864 27.412 30.336L25.804 27.768C25.596 27.432 25.356 27.048 25.084 26.616C24.828 26.168 24.532 25.792 24.196 25.488C23.94 25.504 23.668 25.512 23.38 25.512C23.108 25.512 22.836 25.504 22.564 25.488V30.144C22.564 30.576 22.556 30.952 22.54 31.272C22.54 31.576 22.524 31.832 22.492 32.04C22.684 32.024 22.876 32.016 23.068 32.016C23.26 32 23.452 31.984 23.644 31.968C23.836 31.952 24.028 31.944 24.22 31.944V33H18.82ZM24.052 24.6C24.932 24.568 25.7 24.424 26.356 24.168C27.028 23.912 27.556 23.504 27.94 22.944C28.324 22.384 28.516 21.648 28.516 20.736C28.516 20.128 28.428 19.6 28.252 19.152C28.092 18.688 27.836 18.304 27.484 18C27.132 17.696 26.684 17.472 26.14 17.328C25.596 17.168 24.956 17.088 24.22 17.088C23.628 17.088 23.212 17.208 22.972 17.448C22.748 17.688 22.62 18.024 22.588 18.456C22.572 18.872 22.564 19.368 22.564 19.944V24.552C22.82 24.568 23.06 24.584 23.284 24.6C23.524 24.616 23.78 24.616 24.052 24.6Z" fill="white"/>
</g>
<defs>
<clipPath id="clip0_30_951">
<rect width="50" height="50" fill="white" transform="translate(0.5)"/>
</clipPath>
</defs>
</svg>
